<svg width="40" height="40" viewBox="0 0 40 40" fill="none" xmlns="http://www.w3.org/2000/svg">
    <rect width="40" height="40" rx="20" fill="#FF4820"/>
    <path fill-rule="evenodd" clip-rule="evenodd" d="M31.9777 13.9827C31.6902 12.907 30.8432 12.06 29.7676 11.7725C27.8177 11.25 20 11.25 20 11.25C20 11.25 12.1823 11.25 10.2324 11.7725C9.15703 12.06 8.30977 12.907 8.02227 13.9827C7.5 15.9323 7.5 20.0002 7.5 20.0002C7.5 20.0002 7.5 24.0679 8.02227 26.0173C8.30977 27.093 9.15703 27.9403 10.2324 28.2277C12.1823 28.75 20 28.75 20 28.75C20 28.75 27.8177 28.75 29.7676 28.2277C30.8432 27.9403 31.6902 27.093 31.9777 26.0173C32.5 24.0679 32.5 20.0002 32.5 20.0002C32.5 20.0002 32.5 15.9323 31.9777 13.9827ZM17.4999 23.7502V16.2501L23.995 20.0002L17.4999 23.7502Z" fill="#F2F2F2"/>
</svg>