<svg width="849" height="131" viewBox="0 0 849 131" fill="none" xmlns="http://www.w3.org/2000/svg">
<path d="M35.3093 100.515L22.6804 129.124H0L55.6701 3.09278H78.3505L133.763 129.124H111.082L98.4536 100.515H35.3093ZM89.9485 80.6701L67.0103 28.866L44.0722 80.6701H89.9485Z" fill="black"/>
<path d="M136.315 129.124V3.09278H185.284C202.982 3.09278 215.009 6.87285 221.366 14.433C227.036 20.7904 229.872 28.0928 229.872 36.3402C229.872 46.3058 226.779 53.6942 220.593 58.5052C218.531 60.0515 215.439 61.7698 211.315 63.6598C219.219 65.378 225.404 68.9003 229.872 74.2268C234.511 79.5533 236.83 86.1684 236.83 94.0722C236.83 104.038 233.222 112.371 226.006 119.072C218.961 125.773 207.449 129.124 191.469 129.124H136.315ZM157.707 55.4124H184.511C199.975 55.4124 207.707 50.1718 207.707 39.6907C207.707 33.677 205.817 29.3814 202.036 26.8041C198.428 24.055 192.672 22.6804 184.768 22.6804H157.707V55.4124ZM157.707 109.536H190.954C199.201 109.536 205.301 108.247 209.253 105.67C213.205 102.921 215.181 98.2818 215.181 91.7526C215.181 80.5842 206.246 75 188.377 75H157.707V109.536Z" fill="black"/>
<path d="M306.76 19.3299C294.217 19.3299 283.65 23.7972 275.059 32.732C266.467 41.6667 262.172 52.4914 262.172 65.2062C262.172 77.921 266.467 88.7457 275.059 97.6804C283.65 106.443 294.217 110.825 306.76 110.825C319.302 110.825 329.87 106.443 338.461 97.6804C347.052 88.7457 351.347 77.921 351.347 65.2062C351.347 52.4914 347.052 41.6667 338.461 32.732C329.87 23.7972 319.302 19.3299 306.76 19.3299ZM306.76 130.412C287.859 130.412 272.052 124.227 259.337 111.856C246.622 99.3127 240.265 83.7629 240.265 65.2062C240.265 46.6495 246.622 31.1856 259.337 18.8144C272.052 6.27148 287.859 0 306.76 0C325.66 0 341.467 6.27148 354.182 18.8144C366.897 31.1856 373.254 46.6495 373.254 65.2062C373.254 83.7629 366.811 99.2268 353.924 111.598C341.038 124.141 325.316 130.412 306.76 130.412Z" fill="black"/>
<path d="M436.928 110.309C446.721 110.309 454.453 106.959 460.123 100.258C465.965 93.5567 468.886 84.4502 468.886 72.9381V3.09278H490.278V73.7113C490.278 91.5808 485.381 105.498 475.587 115.464C465.794 125.43 452.907 130.412 436.928 130.412C420.948 130.412 408.062 125.43 398.268 115.464C388.474 105.498 383.577 91.5808 383.577 73.7113V3.09278H404.711V72.9381C404.711 84.622 407.632 93.7285 413.474 100.258C419.144 106.959 426.962 110.309 436.928 110.309Z" fill="black"/>
<path d="M556.476 22.4227V129.124H535.084V22.4227H496.94V3.09278H594.62V22.4227H556.476Z" fill="black"/>
<path d="M689.291 110.309C699.085 110.309 706.817 106.959 712.487 100.258C718.329 93.5567 721.25 84.4502 721.25 72.9381V3.09278H742.641V73.7113C742.641 91.5808 737.744 105.498 727.951 115.464C718.157 125.43 705.27 130.412 689.291 130.412C673.311 130.412 660.425 125.43 650.631 115.464C640.837 105.498 635.94 91.5808 635.94 73.7113V3.09278H657.074V72.9381C657.074 84.622 659.995 93.7285 665.837 100.258C671.507 106.959 679.325 110.309 689.291 110.309Z" fill="black"/>
<path d="M778.169 34.7938C778.169 40.1203 780.145 43.9863 784.097 46.3918C788.049 49.3127 796.468 52.3196 809.354 55.4124C822.928 58.677 832.808 63.1443 838.994 68.8144C845.351 74.4845 848.53 82.6461 848.53 93.299C848.53 104.467 844.32 113.488 835.901 120.361C827.653 127.234 816.829 130.67 803.427 130.67C784.011 130.67 766.485 123.797 750.849 110.052L764.251 94.0722C777.31 105.241 790.54 110.825 803.942 110.825C810.643 110.825 816.055 109.364 820.179 106.443C824.303 103.351 826.365 99.3986 826.365 94.5876C826.365 89.7766 824.475 85.9966 820.695 83.2474C817.086 80.4983 810.557 78.0069 801.107 75.7732C784.784 71.9931 773.444 67.5258 767.086 62.3711C759.698 56.701 756.004 48.0241 756.004 36.3402C756.004 25 760.128 16.1512 768.375 9.79382C776.622 3.26461 787.19 0 800.076 0C817.43 0 832.293 5.06873 844.664 15.2062L833.324 31.1856C829.543 27.7491 824.475 25 818.117 22.9381C811.76 20.7045 805.488 19.5876 799.303 19.5876C792.946 19.5876 787.791 20.9622 783.839 23.7113C780.059 26.2887 778.169 29.9828 778.169 34.7938Z" fill="black"/>
</svg>
