<svg width="81" height="80" viewBox="0 0 81 80" fill="none" xmlns="http://www.w3.org/2000/svg">
<path fill-rule="evenodd" clip-rule="evenodd" d="M40.5 80C62.5914 80 80.5 62.0914 80.5 40C80.5 17.9086 62.5914 0 40.5 0C18.4086 0 0.5 17.9086 0.5 40C0.5 62.0914 18.4086 80 40.5 80Z" fill="#040404"/>
<g clip-path="url(#clip0_1033_3435)">
<path d="M40.5 48C44.9182 48 48.5 44.4182 48.5 40C48.5 35.5817 44.9182 32 40.5 32C36.0817 32 32.5 35.5817 32.5 40C32.5 44.4182 36.0817 48 40.5 48Z" stroke="#F2F2F2" stroke-width="3" stroke-linecap="round" stroke-linejoin="round"/>
<path d="M22.5 48V32C22.5 26.4772 26.9772 22 32.5 22H48.5C54.0228 22 58.5 26.4772 58.5 32V48C58.5 53.5228 54.0228 58 48.5 58H32.5C26.9772 58 22.5 53.5228 22.5 48Z" stroke="#F2F2F2" stroke-width="3"/>
<path d="M51.5 29.02L51.52 28.9978" stroke="#F2F2F2" stroke-width="3" stroke-linecap="round" stroke-linejoin="round"/>
</g>
<defs>
<clipPath id="clip0_1033_3435">
<rect width="48" height="48" fill="white" transform="translate(18.5 16)"/>
</clipPath>
</defs>
</svg>
