<svg width="40" height="40" viewBox="0 0 40 40" fill="none" xmlns="http://www.w3.org/2000/svg">
<g clip-path="url(#clip0_1033_3354)">
<path fill-rule="evenodd" clip-rule="evenodd" d="M20 40C31.0457 40 40 31.0457 40 20C40 8.95431 31.0457 0 20 0C8.95431 0 0 8.95431 0 20C0 31.0457 8.95431 40 20 40Z" fill="#040404"/>
<path fill-rule="evenodd" clip-rule="evenodd" d="M25.784 27.6919C25.6394 27.6876 25.4953 27.6447 25.3646 27.5623C25.3633 27.5623 25.196 27.4544 24.8526 27.2673C24.5088 27.0797 24.0023 26.8215 23.3712 26.5505C22.1104 26.0049 20.3454 25.4007 18.3729 25.1689C17.7672 25.0982 17.1843 25.0549 16.6269 25.0365C14.1201 24.9526 12.1498 25.3319 11.3468 25.5195C11.0781 25.5822 10.9539 25.6203 10.9539 25.6203C10.5067 25.7537 10.0387 25.4922 9.90712 25.0379C9.77691 24.5827 10.0327 24.1058 10.4794 23.9729C10.5364 23.9564 13.078 23.2029 16.6802 23.3212C17.2807 23.3419 17.9123 23.3876 18.5647 23.4644C22.9412 23.9852 26.1987 26.0751 26.2589 26.1066C26.6547 26.3588 26.7742 26.8884 26.5268 27.2894C26.3627 27.559 26.075 27.7018 25.784 27.6919ZM28.8524 22.6313C28.6458 22.9663 28.2871 23.1464 27.9234 23.1336C27.7426 23.1275 27.5624 23.0738 27.3993 22.9701C27.3984 22.9715 27.3613 22.9456 27.2617 22.8867C27.1611 22.8273 27.0101 22.7402 26.8136 22.6332C26.4179 22.4174 25.8377 22.1205 25.1107 21.8071C23.6604 21.1799 21.6304 20.4872 19.3626 20.2214C18.6685 20.1394 17.9971 20.0909 17.3553 20.0697C14.4708 19.9726 12.2036 20.4085 11.2819 20.6243C10.9743 20.6969 10.8348 20.7384 10.8339 20.7398C10.2755 20.9047 9.68887 20.5786 9.52577 20.0098C9.36174 19.4406 9.68192 18.8445 10.2417 18.6805C10.3126 18.6583 13.254 17.787 17.4234 17.9256C18.1185 17.9487 18.8478 18.0005 19.6036 18.09C24.6747 18.6941 28.4447 21.1102 28.5197 21.153C29.0123 21.4688 29.1624 22.1299 28.8524 22.6313ZM31.3453 17.9091C31.0965 18.3115 30.6647 18.5264 30.2296 18.5118C30.0141 18.5047 29.7968 18.4411 29.6017 18.3157C29.6017 18.3157 29.5563 18.2865 29.4386 18.2163C29.3218 18.1475 29.1443 18.0443 28.9108 17.9171C28.4456 17.665 27.7612 17.3158 26.9049 16.9454C25.195 16.207 22.8036 15.3894 20.1332 15.076C19.314 14.9799 18.5221 14.9233 17.7668 14.8988C13.8017 14.7641 10.8269 15.4846 10.2027 15.6528C10.1138 15.6764 10.0823 15.6858 10.0823 15.6858C9.41178 15.8851 8.70931 15.4931 8.51284 14.8117C8.31638 14.1293 8.70004 13.4135 9.37193 13.2142C9.45719 13.1906 12.9287 12.1614 17.8493 12.3254C18.6699 12.3523 19.5299 12.4126 20.4219 12.5182C26.4095 13.2321 30.8546 16.0826 30.945 16.1339C31.5367 16.5109 31.716 17.3068 31.3453 17.9091Z" fill="#F2F2F2"/>
</g>
<defs>
<clipPath id="clip0_1033_3354">
<rect width="40" height="40" fill="white"/>
</clipPath>
</defs>
</svg>
