<svg width="600" height="286" viewBox="0 0 600 286" fill="none" xmlns="http://www.w3.org/2000/svg">
<path d="M95.8571 73.6778C95.8571 76.8035 95.5622 79.7804 94.8248 82.9061H20.0563C24.038 94.9625 35.2459 103.298 47.9286 103.298C57.3668 103.298 64.8879 99.5767 70.7868 92.2833H92.0229C84.6492 109.996 67.1 121.903 47.9286 121.903C21.8259 121.903 0 100.172 0 73.6778C0 47.1836 21.8259 25.3035 47.9286 25.3035C74.1787 25.3035 95.8571 47.1836 95.8571 73.6778ZM20.0563 64.3006H75.8009C71.8191 52.3931 60.3163 43.909 47.9286 43.909C35.2459 43.909 24.038 52.2443 20.0563 64.3006Z" fill="#F2F2F2"/>
<path d="M174.553 92.1345L191.365 100.47C182.369 113.866 167.622 121.903 151.695 121.903C125.297 121.903 103.767 100.172 103.767 73.6778C103.767 47.1836 125.297 25.3035 151.695 25.3035C167.622 25.3035 182.369 33.3411 191.365 46.5882L174.553 55.0723C168.654 47.6301 161.133 43.909 151.695 43.909C135.473 43.909 122.348 57.6026 122.348 73.6778C122.348 89.6041 135.621 103.298 151.695 103.298C161.133 103.298 168.654 99.5767 174.553 92.1345Z" fill="#F2F2F2"/>
<path d="M293.148 45.5463V120.266H274.566V45.5463H219.117V120.266H200.682V0H219.117V26.7919H274.566C286.954 26.7919 293.148 33.0434 293.148 45.5463Z" fill="#F2F2F2"/>
<path d="M87.3037 216.866V235.62C87.3037 247.676 80.52 254.226 68.5747 254.226H2.35956V235.62H68.5747V216.866H19.4664C8.55341 216.866 1.03231 210.465 1.03231 198.26V179.506C1.03231 167.598 8.25846 160.752 19.4664 160.752H82.7321V179.506H19.4664V198.26H68.5747C79.9301 198.26 87.3037 205.554 87.3037 216.866Z" fill="#F2F2F2"/>
<path d="M191.541 179.506V236.067C191.541 246.188 182.841 254.226 172.96 254.226H117.51V285.185H99.0762V160.752H172.96C184.168 160.752 191.541 168.491 191.541 179.506ZM117.51 235.62H172.96V179.506H117.51V235.62Z" fill="#F2F2F2"/>
<path d="M296.748 179.506V254.226H278.167V179.506H222.717V254.226H204.283V133.96H222.717V160.752H278.167C290.554 160.752 296.748 167.003 296.748 179.506Z" fill="#F2F2F2"/>
<path d="M402.692 207.637C402.692 210.763 402.397 213.74 401.66 216.866H326.891C330.873 228.922 342.081 237.257 354.764 237.257C364.202 237.257 371.723 233.536 377.622 226.243H398.858C391.484 243.955 373.935 255.863 354.764 255.863C328.661 255.863 306.835 234.132 306.835 207.637C306.835 181.143 328.661 159.263 354.764 159.263C381.014 159.263 402.692 181.143 402.692 207.637ZM326.891 198.26H382.636C378.654 186.353 367.151 177.869 354.764 177.869C342.081 177.869 330.873 186.204 326.891 198.26Z" fill="#F2F2F2"/>
<path d="M497.905 179.506V198.26H479.324V179.506H431.69V254.226H413.256V160.752H479.324C491.711 160.752 497.905 167.003 497.905 179.506Z" fill="#F2F2F2"/>
<path d="M600 207.637C600 210.763 599.705 213.74 598.968 216.866H524.199C528.181 228.922 539.389 237.257 552.071 237.257C561.51 237.257 569.031 233.536 574.93 226.243H596.166C588.792 243.955 571.243 255.863 552.071 255.863C525.969 255.863 504.143 234.132 504.143 207.637C504.143 181.143 525.969 159.263 552.071 159.263C578.322 159.263 600 181.143 600 207.637ZM524.199 198.26H579.944C575.962 186.353 564.459 177.869 552.071 177.869C539.389 177.869 528.181 186.204 524.199 198.26Z" fill="#F2F2F2"/>
<path fill-rule="evenodd" clip-rule="evenodd" d="M414.103 73.3801C414.103 99.2891 392.33 120.266 365.437 120.266C338.544 120.266 316.771 99.2891 316.771 73.3801C316.771 47.4711 338.544 26.4942 365.437 26.4942C392.33 26.4942 414.103 47.4711 414.103 73.3801ZM409.146 73.3801C409.146 50.1557 389.543 31.2702 365.437 31.2702C341.331 31.2702 321.728 50.1557 321.728 73.3801C321.728 96.6045 341.331 115.49 365.437 115.49C389.543 115.49 409.146 96.6045 409.146 73.3801Z" fill="#F2F2F2"/>
<path d="M399.846 73.3813C399.846 91.7049 384.456 106.532 365.437 106.532C346.418 106.532 331.027 91.7049 331.027 73.3813C331.027 55.0578 346.418 40.2303 365.437 40.2303C384.456 40.2303 399.846 55.0578 399.846 73.3813Z" fill="#F2F2F2"/>
</svg>
