<svg width="32" height="32" viewBox="0 0 32 32" fill="none" xmlns="http://www.w3.org/2000/svg">
<path fill-rule="evenodd" clip-rule="evenodd" d="M32 16C32 24.8415 24.8415 32 16 32C7.15846 32 0 24.8415 0 16C0 7.15846 7.15846 0 16 0C24.8415 0 32 7.15846 32 16ZM30.3702 16C30.3702 8.07457 23.9254 1.62983 16 1.62983C8.07457 1.62983 1.62983 8.07457 1.62983 16C1.62983 23.9254 8.07457 30.3702 16 30.3702C23.9254 30.3702 30.3702 23.9254 30.3702 16Z" fill="#FF4820"/>
<path d="M27.3129 16.0004C27.3129 22.2534 22.253 27.3133 16 27.3133C9.74697 27.3133 4.68705 22.2534 4.68705 16.0004C4.68705 9.74742 9.74697 4.6875 16 4.6875C22.253 4.6875 27.3129 9.74742 27.3129 16.0004Z" fill="#FF4820"/>
</svg>
